HIERARCHY
ROOT Hips
{
	OFFSET 0.00000 0.00000 0.00000
	CHANNELS 6 Xposition Yposition Zposition Zrotation Yrotation Xrotation 
	JOINT LHipJoint
	{
		OFFSET 0 0 0
		CHANNELS 3 Zrotation Yrotation Xrotation
		JOINT LeftUpLeg
		{
			OFFSET 1.37590 -1.78394 0.89329
			CHANNELS 3 Zrotation Yrotation Xrotation
			JOINT LeftLeg
			{
				OFFSET 2.47928 -6.81178 0.00000
				CHANNELS 3 Zrotation Yrotation Xrotation
				JOINT LeftFoot
				{
					OFFSET 2.63345 -7.23535 0.00000
					CHANNELS 3 Zrotation Yrotation Xrotation
					JOINT LeftToeBase
					{
						OFFSET 0.23938 -0.65768 2.27012
						CHANNELS 3 Zrotation Yrotation Xrotation
						End Site
						{
							OFFSET 0.00000 -0.00000 1.18363
						}
					}
				}
			}
		}
	}
	JOINT RHipJoint
	{
		OFFSET 0 0 0
		CHANNELS 3 Zrotation Yrotation Xrotation
		JOINT RightUpLeg
		{
			OFFSET -1.33617 -1.78394 0.89329
			CHANNELS 3 Zrotation Yrotation Xrotation
			JOINT RightLeg
			{
				OFFSET -2.56922 -7.05888 0.00000
				CHANNELS 3 Zrotation Yrotation Xrotation
				JOINT RightFoot
				{
					OFFSET -2.56568 -7.04915 0.00000
					CHANNELS 3 Zrotation Yrotation Xrotation
					JOINT RightToeBase
					{
						OFFSET -0.27533 -0.75646 2.18105
						CHANNELS 3 Zrotation Yrotation Xrotation
						End Site
						{
							OFFSET -0.00000 -0.00000 1.15233
						}
					}
				}
			}
		}
	}
	JOINT LowerBack
	{
		OFFSET 0 0 0
		CHANNELS 3 Zrotation Yrotation Xrotation
		JOINT Spine
		{
			OFFSET 0.06190 2.15152 -0.00935
			CHANNELS 3 Zrotation Yrotation Xrotation
			JOINT Spine1
			{
				OFFSET 0.06334 2.15332 0.00872
				CHANNELS 3 Zrotation Yrotation Xrotation
				JOINT Neck
				{
					OFFSET 0 0 0
					CHANNELS 3 Zrotation Yrotation Xrotation
					JOINT Neck1
					{
						OFFSET -0.04202 1.66908 0.23524
						CHANNELS 3 Zrotation Yrotation Xrotation
						JOINT Head
						{
							OFFSET 0.07510 1.69357 -0.24440
							CHANNELS 3 Zrotation Yrotation Xrotation
							End Site
							{
								OFFSET 0.02556 1.71719 -0.11000
							}
						}
					}
				}
				JOINT LeftShoulder
				{
					OFFSET 0 0 0
					CHANNELS 3 Zrotation Yrotation Xrotation
					JOINT LeftArm
					{
						OFFSET 3.67168 1.26306 -0.41342
						CHANNELS 3 Zrotation Yrotation Xrotation
						JOINT LeftForeArm
						{
							OFFSET 4.68510 -0.00000 -0.00000
							CHANNELS 3 Zrotation Yrotation Xrotation
							JOINT LeftHand
							{
								OFFSET 3.39626 -0.00000 -0.00000
								CHANNELS 3 Zrotation Yrotation Xrotation
								JOINT LeftFingerBase
								{
									OFFSET 0 0 0
									CHANNELS 3 Zrotation Yrotation Xrotation
									JOINT LeftHandIndex1
									{
										OFFSET 0.48608 -0.00000 -0.00000
										CHANNELS 3 Zrotation Yrotation Xrotation
										End Site
										{
											OFFSET 0.39189 -0.00000 -0.00000
										}
									}
								}
								JOINT LThumb
								{
									OFFSET 0 0 0
									CHANNELS 3 Zrotation Yrotation Xrotation
									End Site
									{
										OFFSET 0.39787 -0.00000 0.39787
									}
								}
							}
						}
					}
				}
				JOINT RightShoulder
				{
					OFFSET 0 0 0
					CHANNELS 3 Zrotation Yrotation Xrotation
					JOINT RightArm
					{
						OFFSET -3.04136 1.42992 -0.76390
						CHANNELS 3 Zrotation Yrotation Xrotation
						JOINT RightForeArm
						{
							OFFSET -5.55576 -0.00000 -0.00000
							CHANNELS 3 Zrotation Yrotation Xrotation
							JOINT RightHand
							{
								OFFSET -3.32774 -0.00000 -0.00000
								CHANNELS 3 Zrotation Yrotation Xrotation
								JOINT RightFingerBase
								{
									OFFSET 0 0 0
									CHANNELS 3 Zrotation Yrotation Xrotation
									JOINT RightHandIndex1
									{
										OFFSET -0.50763 -0.00000 -0.00000
										CHANNELS 3 Zrotation Yrotation Xrotation
										End Site
										{
											OFFSET -0.40926 -0.00000 -0.00000
										}
									}
								}
								JOINT RThumb
								{
									OFFSET 0 0 0
									CHANNELS 3 Zrotation Yrotation Xrotation
									End Site
									{
										OFFSET -0.41551 -0.00000 0.41551
									}
								}
							}
						}
					}
				}
			}
		}
	}
}
MOTION
Frames: 12
Frame Time: .0083333
42.1963 17.5894 4.5787 0 0 0 0 0 0 -21 0 0 0 0 0 0 0 0 0 0 0 0 0 0 21 0 0 0 0 0 0 0 0 0 0 0 0 0 0 0 0 0 0 0 0 0 0 -16 0 0 21 0 0 11 0 0 0 -8 0 0 0 0 0 0 0 0 0 0 0 0 0 0 0 0 0 0 0 0 8 0 0 0 0 0 0 0 0 0 0 0 0 0 0 0 0 0
42.1963 17.5894 4.5787 -79.2790 -82.0226 89.3684 0.0000 0.0000 0.0000 -7.2871 -6.7682 -20.1632 3.8577 11.9687 35.6212 0.8473 -0.0833 -17.3727 0.2166 -2.9958 -8.2670 0.0000 0.0000 0.0000 31.0772 4.6089 -11.0902 -1.1904 -6.9236 19.4893 -0.5744 -5.2657 -17.2035 -0.6508 -5.1605 14.3669 4.0338 -0.3745 -2.1521 5.1483 -0.6986 -1.5863 3.0253 -0.4178 -0.4045 -4.3869 -0.2697 -19.9528 4.4693 -0.0824 17.6444 2.2356 0.1393 8.8074 0.0000 -0.0000 0.0000 -94.3218 0.3094 8.1004 14.1820 -22.9942 -2.8988 -0.0000 -0.0000 31.1268 13.2707 19.1067 4.4145 -7.1250 0.0000 -0.0000 -14.6275 49.0067 -1.4741 0.0000 -0.0000 0.0000 83.4259 1.1673 7.5330 -11.8577 19.5910 -2.0543 0.0000 0.0000 18.8867 -12.8462 -24.1539 5.3310 7.1250 -0.0000 -0.0000 17.2692 -53.8423 -3.8426
42.1819 17.5815 4.5641 -78.8604 -81.8254 88.7530 0.0000 0.0000 0.0000 -6.9392 -6.8637 -21.3342 4.3432 12.6036 37.9022 0.7986 0.0535 -16.9114 0.3584 -3.8461 -10.6441 0.0000 0.0000 0.0000 31.3670 4.3337 -10.8933 -1.1892 -6.9203 19.4793 -0.5842 -5.1418 -17.2264 -0.6795 -5.2707 14.6823 4.2679 -0.3863 -1.8169 5.1575 -0.7014 -1.4336 2.9058 -0.4205 -0.4380 -4.3787 -0.2855 -19.9072 4.4764 -0.1000 17.3817 2.2303 0.1343 8.7104 0.0000 -0.0000 0.0000 -94.4225 0.0334 7.7604 14.2145 -23.0405 -2.9115 -0.0000 -0.0000 31.3690 13.4581 19.0117 4.4575 -7.1250 0.0000 -0.0000 -14.4161 48.9408 -1.4282 0.0000 -0.0000 0.0000 83.3428 1.3131 8.3310 -12.0179 19.8315 -2.1084 0.0000 0.0000 18.6865 -13.1876 -24.2557 5.4984 7.1250 -0.0000 -0.0000 16.9845 -54.0031 -3.8439
42.1618 17.5745 4.5476 -79.3349 -81.6497 89.0157 0.0000 0.0000 0.0000 -6.5714 -6.8474 -22.4670 4.8420 13.2037 40.1357 0.7495 0.0816 -16.3933 0.4599 -4.3502 -12.0641 0.0000 0.0000 0.0000 31.6675 4.1409 -10.6099 -1.1840 -6.9057 19.4362 -0.5936 -5.0197 -17.2474 -0.7013 -5.3528 14.9176 4.4663 -0.3570 -1.5309 5.1621 -0.6533 -1.2560 2.8016 -0.3966 -0.4186 -4.4125 -0.2594 -19.9088 4.5426 -0.0599 17.1610 2.2606 0.1601 8.6333 -0.0000 -0.0000 0.0000 -94.4529 -0.0205 8.0019 14.4242 -23.3379 -2.9941 -0.0000 -0.0000 30.9248 13.7808 18.9003 4.5425 -7.1250 0.0000 -0.0000 -14.0720 48.8784 -1.3709 -0.0000 -0.0000 0.0000 83.2856 1.5080 9.0049 -12.2034 20.1090 -2.1717 0.0000 0.0000 18.4851 -13.2830 -24.2563 5.5395 7.1250 -0.0000 -0.0000 16.8904 -54.0214 -3.8293
42.1419 17.5680 4.5315 -79.9454 -81.5994 89.4739 0.0000 0.0000 0.0000 -6.3350 -6.8858 -23.6442 5.3389 13.7556 42.2671 0.6674 0.3889 -15.5822 0.3147 -3.6063 -9.9716 0.0000 0.0000 0.0000 31.8327 4.0951 -10.3597 -1.1849 -6.9079 19.4429 -0.6055 -4.9759 -17.3523 -0.7132 -5.3973 15.0452 4.5080 -0.2880 -1.3784 5.1390 -0.5620 -1.0334 2.7548 -0.3476 -0.2771 -4.3449 -0.2710 -19.9307 4.4822 -0.0696 16.8445 2.2232 0.1565 8.5301 0.0000 -0.0000 0.0000 -94.4822 -0.2571 8.2530 14.6099 -23.5999 -3.0681 -0.0000 -0.0000 30.4648 13.8722 19.0582 4.6103 -7.1250 0.0000 -0.0000 -14.0439 49.0477 -1.4275 0.0000 -0.0000 0.0000 83.2026 1.7933 9.6327 -12.3620 20.3453 -2.2266 0.0000 0.0000 18.2898 -13.5488 -24.3979 5.6846 7.1250 -0.0000 -0.0000 16.7001 -54.2074 -3.8610
42.1202 17.5626 4.5120 -80.7127 -81.5414 90.1101 0.0000 0.0000 0.0000 -6.0663 -6.9285 -24.8672 5.8638 14.2950 44.4326 0.5894 0.7270 -14.7848 0.5254 -4.6453 -12.8996 0.0000 0.0000 0.0000 32.0204 4.1615 -10.0880 -1.1865 -6.9125 19.4564 -0.6152 -4.9742 -17.4606 -0.7371 -5.4847 15.2964 4.5302 -0.2511 -1.0854 5.1249 -0.4935 -0.9471 2.7301 -0.3132 -0.3542 -4.4797 -0.2406 -19.9191 4.6816 -0.0266 16.7192 2.3171 0.1902 8.4832 0.0000 -0.0000 0.0000 -94.5207 -0.1892 8.4531 14.8806 -23.9795 -3.1773 -0.0000 -0.0000 29.8680 14.0952 19.2669 4.7363 -7.1250 0.0000 -0.0000 -13.9107 49.2868 -1.4966 0.0000 -0.0000 0.0000 83.1346 1.8607 10.2834 -12.5098 20.5648 -2.2782 0.0000 0.0000 18.4246 -13.9062 -23.6221 5.6658 7.1250 -0.0000 -0.0000 15.9551 -53.5222 -3.4117
42.0948 17.5586 4.4966 -81.4800 -81.4598 90.7410 0.0000 0.0000 0.0000 -5.7899 -7.0047 -25.9912 6.3660 14.7739 46.4337 0.5142 1.1578 -14.0140 0.4024 -4.0726 -11.2809 0.0000 0.0000 0.0000 32.2006 4.1675 -9.7988 -1.1806 -6.8961 19.4079 -0.6324 -4.8798 -17.5871 -0.7826 -5.6478 15.7657 4.6514 -0.2076 -0.8805 5.0893 -0.4281 -0.7997 2.6265 -0.2794 -0.3194 -4.4204 -0.2079 -19.7180 4.6422 0.0171 16.2539 2.2909 0.2114 8.2887 -0.0000 0.0000 0.0000 -94.5309 -0.2007 8.6945 15.1658 -24.3766 -3.2941 -0.0000 -0.0000 29.2608 14.1966 19.2667 4.7716 -7.1250 0.0000 -0.0000 -13.8149 49.3018 -1.4911 -0.0000 0.0000 0.0000 83.0815 2.0169 11.0691 -12.7449 20.9123 -2.3614 0.0000 0.0000 17.9856 -14.0497 -23.9845 5.8084 7.1250 -0.0000 -0.0000 15.9924 -53.9003 -3.5695
42.0681 17.5526 4.4817 -82.2534 -81.2382 91.3958 0.0000 0.0000 0.0000 -5.3368 -7.0983 -27.1228 6.8590 15.2120 48.3389 0.4366 1.7580 -13.2458 0.6576 -5.1869 -14.4423 0.0000 0.0000 0.0000 32.5595 4.1482 -9.5174 -1.1731 -6.8747 19.3447 -0.6411 -4.8312 -17.6506 -0.7861 -5.6602 15.8017 4.9005 -0.1433 -0.7038 5.0986 -0.3402 -0.6611 2.4979 -0.2361 -0.2783 -4.4941 -0.1929 -19.7267 4.7533 0.0417 16.1082 2.3418 0.2312 8.2397 0.0000 -0.0000 0.0000 -94.5539 -0.1822 9.0441 15.4871 -24.8203 -3.4278 -0.0000 -0.0000 28.5553 14.3765 19.5525 4.9030 -7.1250 0.0000 -0.0000 -13.7509 49.6115 -1.5903 0.0000 -0.0000 0.0000 83.0266 2.1826 11.7695 -12.9476 21.2103 -2.4343 0.0000 0.0000 17.8774 -14.4045 -24.2201 6.0149 7.1250 -0.0000 -0.0000 15.7579 -54.1951 -3.6298
42.0369 17.5496 4.4652 -83.5755 -81.2419 92.6616 0.0000 0.0000 0.0000 -5.1559 -7.1538 -28.2530 7.3192 15.5949 50.0714 0.3347 3.0157 -12.4609 0.7684 -5.5974 -15.6206 0.0000 0.0000 0.0000 32.6498 4.1928 -9.2682 -1.1649 -6.8515 19.2761 -0.6451 -4.7625 -17.6488 -0.7674 -5.5939 15.6105 4.8678 -0.0503 -0.6322 5.0615 -0.2178 -0.5208 2.4778 -0.1717 -0.1749 -4.4674 -0.1851 -19.6537 4.7176 0.0593 15.8199 2.3227 0.2386 8.1293 -0.0000 0.0000 0.0000 -94.5883 -0.1129 9.3944 15.8577 -25.3273 -3.5849 -0.0000 -0.0000 27.9074 14.4617 19.5336 4.9286 -7.1250 0.0000 -0.0000 -13.6630 49.6058 -1.5779 -0.0000 0.0000 0.0000 82.9639 2.3620 12.4860 -13.1670 21.5313 -2.5142 0.0000 0.0000 17.6398 -14.6890 -24.1742 6.1272 7.1250 -0.0000 -0.0000 15.4511 -54.2036 -3.5597
42.0009 17.5484 4.4499 -83.8659 -81.2040 92.8664 0.0000 0.0000 0.0000 -4.9320 -7.3734 -29.2279 7.7295 15.9166 51.5823 0.3078 3.3436 -12.2553 0.6305 -5.0808 -14.1393 0.0000 0.0000 0.0000 32.7803 4.1249 -8.9590 -1.1497 -6.8083 19.1485 -0.6624 -4.7127 -17.8050 -0.7817 -5.6445 15.7562 4.9328 -0.0153 -0.5841 5.0106 -0.1766 -0.3596 2.3886 -0.1478 -0.0366 -4.5088 -0.1685 -19.7193 4.8018 0.0845 15.6841 2.3597 0.2584 8.0936 0.0000 0.0000 0.0000 -94.5907 -0.0539 9.8046 16.2502 -25.8587 -3.7544 -0.0000 -0.0000 27.1786 14.5669 19.9584 5.0689 -7.1250 0.0000 -0.0000 -13.7236 50.0423 -1.7345 0.0000 0.0000 0.0000 82.9251 2.5476 13.3835 -13.4372 21.9245 -2.6143 0.0000 0.0000 17.2510 -15.0615 -24.4379 6.3525 7.1250 -0.0000 -0.0000 15.2106 -54.5311 -3.6250
41.9639 17.5469 4.4377 -84.4682 -81.0893 93.3689 0.0000 0.0000 0.0000 -4.6130 -7.5104 -30.1666 8.1451 16.2249 53.0836 0.3478 2.8061 -12.5293 0.6016 -4.9652 -13.8093 0.0000 0.0000 0.0000 32.9790 4.0345 -8.6660 -1.1379 -6.7743 19.0485 -0.6844 -4.5701 -17.9508 -0.8133 -5.7550 16.0753 5.0875 0.0164 -0.4006 4.9925 -0.1250 -0.2830 2.2841 -0.1222 -0.0613 -4.5066 -0.1250 -19.6493 4.7844 0.1496 15.5180 2.3584 0.2878 8.0226 0.0000 -0.0000 0.0000 -94.6070 0.1407 10.1515 16.6414 -26.3826 -3.9267 -0.0000 -0.0000 26.4841 14.7570 19.9168 5.1275 -7.1250 0.0000 -0.0000 -13.5265 50.0308 -1.7049 0.0000 -0.0000 0.0000 82.8400 2.6171 14.2853 -13.7120 22.3215 -2.7178 0.0000 0.0000 16.8873 -15.1421 -24.9278 6.5068 7.1250 -0.0000 -0.0000 15.3804 -55.0243 -3.8535
41.9223 17.5457 4.4268 -85.5881 -80.8683 94.4274 0.0000 0.0000 0.0000 -4.1963 -7.4434 -31.1329 8.4522 16.4420 54.1758 0.3885 1.9586 -12.6524 0.5996 -4.9569 -13.7857 0.0000 0.0000 0.0000 33.3066 3.9991 -8.3472 -1.1213 -6.7264 18.9073 -0.7066 -4.3998 -18.0789 -0.8605 -5.9154 16.5391 5.3747 0.1071 -0.3671 4.9792 -0.0131 -0.1627 2.1106 -0.0652 0.0438 -4.4924 -0.1146 -19.5882 4.7902 0.1623 15.3323 2.3563 0.2957 7.9493 -0.0000 -0.0000 0.0000 -94.5954 0.2959 10.5843 17.0666 -26.9455 -4.1175 -0.0000 -0.0000 25.7908 14.9204 20.0859 5.2286 -7.1250 0.0000 -0.0000 -13.4346 50.2237 -1.7575 -0.0000 -0.0000 0.0000 82.7841 2.7218 15.1614 -14.0147 22.7558 -2.8338 0.0000 0.0000 16.4542 -15.4268 -24.8367 6.6115 7.1250 -0.0000 -0.0000 15.0458 -54.9907 -3.7543
